<svg width="164" height="36" viewBox="0 0 164 36" fill="none" xmlns="http://www.w3.org/2000/svg">
<path d="M10.0195 26H1.79688V11.7227H10.0195V14.2031H4.82422V17.3379H9.6582V19.8184H4.82422V23.5H10.0195V26ZM15.0098 20.4238L11.4941 15.082H14.873L16.9922 18.5586L19.1309 15.082H22.5098L18.9551 20.4238L22.6758 26H19.2871L16.9922 22.2598L14.6875 26H11.3086L15.0098 20.4238ZM30.4102 14.877C31.6406 14.877 32.6335 15.3555 33.3887 16.3125C34.1504 17.2695 34.5312 18.6725 34.5312 20.5215C34.5312 21.7585 34.3522 22.8001 33.9941 23.6465C33.6361 24.4863 33.1413 25.1211 32.5098 25.5508C31.8783 25.9805 31.1523 26.1953 30.332 26.1953C29.8047 26.1953 29.3522 26.1302 28.9746 26C28.597 25.8633 28.2747 25.6908 28.0078 25.4824C27.7409 25.2676 27.5098 25.0397 27.3145 24.7988H27.1582C27.2103 25.0592 27.2493 25.3262 27.2754 25.5996C27.3014 25.873 27.3145 26.14 27.3145 26.4004V30.8047H24.3359V15.082H26.7578L27.1777 16.498H27.3145C27.5098 16.2051 27.7474 15.9349 28.0273 15.6875C28.3073 15.4401 28.6426 15.2448 29.0332 15.1016C29.4303 14.9518 29.8893 14.877 30.4102 14.877ZM29.4531 17.2598C28.9323 17.2598 28.5189 17.3672 28.2129 17.582C27.9069 17.7969 27.6823 18.1191 27.5391 18.5488C27.4023 18.9785 27.3275 19.5221 27.3145 20.1797V20.502C27.3145 21.2051 27.3796 21.8008 27.5098 22.2891C27.6465 22.7773 27.8711 23.1484 28.1836 23.4023C28.5026 23.6562 28.9388 23.7832 29.4922 23.7832C29.9479 23.7832 30.3223 23.6562 30.6152 23.4023C30.9082 23.1484 31.1263 22.7773 31.2695 22.2891C31.4193 21.7943 31.4941 21.1921 31.4941 20.4824C31.4941 19.4147 31.3281 18.6107 30.9961 18.0703C30.6641 17.5299 30.1497 17.2598 29.4531 17.2598ZM39.9707 26H36.9922V10.8047H39.9707V26ZM53.0273 20.5215C53.0273 21.4329 52.9036 22.2402 52.6562 22.9434C52.4154 23.6465 52.0605 24.2422 51.5918 24.7305C51.1296 25.2122 50.5697 25.5768 49.9121 25.8242C49.2611 26.0716 48.5254 26.1953 47.7051 26.1953C46.9368 26.1953 46.2305 26.0716 45.5859 25.8242C44.9479 25.5768 44.3913 25.2122 43.916 24.7305C43.4473 24.2422 43.0827 23.6465 42.8223 22.9434C42.5684 22.2402 42.4414 21.4329 42.4414 20.5215C42.4414 19.3105 42.6562 18.2852 43.0859 17.4453C43.5156 16.6055 44.1276 15.9674 44.9219 15.5312C45.7161 15.0951 46.6634 14.877 47.7637 14.877C48.7858 14.877 49.6908 15.0951 50.4785 15.5312C51.2728 15.9674 51.8945 16.6055 52.3438 17.4453C52.7995 18.2852 53.0273 19.3105 53.0273 20.5215ZM45.4785 20.5215C45.4785 21.2376 45.5566 21.8398 45.7129 22.3281C45.8691 22.8164 46.1133 23.1842 46.4453 23.4316C46.7773 23.679 47.2103 23.8027 47.7441 23.8027C48.2715 23.8027 48.6979 23.679 49.0234 23.4316C49.3555 23.1842 49.5964 22.8164 49.7461 22.3281C49.9023 21.8398 49.9805 21.2376 49.9805 20.5215C49.9805 19.7988 49.9023 19.1999 49.7461 18.7246C49.5964 18.2428 49.3555 17.8815 49.0234 17.6406C48.6914 17.3997 48.2585 17.2793 47.7246 17.2793C46.9368 17.2793 46.3639 17.5495 46.0059 18.0898C45.6543 18.6302 45.4785 19.4408 45.4785 20.5215ZM61.582 14.877C61.7318 14.877 61.9043 14.8867 62.0996 14.9062C62.3014 14.9193 62.4642 14.9388 62.5879 14.9648L62.3633 17.7578C62.2656 17.7253 62.1257 17.7025 61.9434 17.6895C61.7676 17.6699 61.6146 17.6602 61.4844 17.6602C61.1003 17.6602 60.7259 17.709 60.3613 17.8066C60.0033 17.9043 59.681 18.0638 59.3945 18.2852C59.1081 18.5 58.8802 18.7865 58.7109 19.1445C58.5482 19.4961 58.4668 19.929 58.4668 20.4434V26H55.4883V15.082H57.7441L58.1836 16.918H58.3301C58.5449 16.5469 58.8118 16.2083 59.1309 15.9023C59.4564 15.5898 59.8242 15.3424 60.2344 15.1602C60.651 14.9714 61.1003 14.877 61.582 14.877ZM69.0723 14.877C70.0814 14.877 70.9505 15.0723 71.6797 15.4629C72.4089 15.847 72.972 16.4069 73.3691 17.1426C73.7663 17.8783 73.9648 18.7767 73.9648 19.8379V21.2832H66.9238C66.9564 22.123 67.207 22.7839 67.6758 23.2656C68.151 23.7409 68.8086 23.9785 69.6484 23.9785C70.3451 23.9785 70.9831 23.9069 71.5625 23.7637C72.1419 23.6204 72.7376 23.4056 73.3496 23.1191V25.4238C72.8092 25.6908 72.2428 25.8861 71.6504 26.0098C71.0645 26.1335 70.3516 26.1953 69.5117 26.1953C68.418 26.1953 67.4479 25.9935 66.6016 25.5898C65.7617 25.1862 65.1009 24.571 64.6191 23.7441C64.1439 22.9173 63.9062 21.8757 63.9062 20.6191C63.9062 19.3431 64.1211 18.2819 64.5508 17.4355C64.987 16.5827 65.5924 15.9447 66.3672 15.5215C67.1419 15.0918 68.0436 14.877 69.0723 14.877ZM69.0918 16.9961C68.5124 16.9961 68.0306 17.1816 67.6465 17.5527C67.2689 17.9238 67.0508 18.5065 66.9922 19.3008H71.1719C71.1654 18.8581 71.084 18.4642 70.9277 18.1191C70.778 17.7741 70.5501 17.5007 70.2441 17.2988C69.9447 17.097 69.5605 16.9961 69.0918 16.9961ZM87.6562 14.877C88.8867 14.877 89.8796 15.3555 90.6348 16.3125C91.3965 17.2695 91.7773 18.6725 91.7773 20.5215C91.7773 21.7585 91.5983 22.8001 91.2402 23.6465C90.8822 24.4863 90.3874 25.1211 89.7559 25.5508C89.1243 25.9805 88.3984 26.1953 87.5781 26.1953C87.0508 26.1953 86.5983 26.1302 86.2207 26C85.8431 25.8633 85.5208 25.6908 85.2539 25.4824C84.987 25.2676 84.7559 25.0397 84.5605 24.7988H84.4043C84.4564 25.0592 84.4954 25.3262 84.5215 25.5996C84.5475 25.873 84.5605 26.14 84.5605 26.4004V30.8047H81.582V15.082H84.0039L84.4238 16.498H84.5605C84.7559 16.2051 84.9935 15.9349 85.2734 15.6875C85.5534 15.4401 85.8887 15.2448 86.2793 15.1016C86.6764 14.9518 87.1354 14.877 87.6562 14.877ZM86.6992 17.2598C86.1784 17.2598 85.765 17.3672 85.459 17.582C85.153 17.7969 84.9284 18.1191 84.7852 18.5488C84.6484 18.9785 84.5736 19.5221 84.5605 20.1797V20.502C84.5605 21.2051 84.6257 21.8008 84.7559 22.2891C84.8926 22.7773 85.1172 23.1484 85.4297 23.4023C85.7487 23.6562 86.1849 23.7832 86.7383 23.7832C87.194 23.7832 87.5684 23.6562 87.8613 23.4023C88.1543 23.1484 88.3724 22.7773 88.5156 22.2891C88.6654 21.7943 88.7402 21.1921 88.7402 20.4824C88.7402 19.4147 88.5742 18.6107 88.2422 18.0703C87.9102 17.5299 87.3958 17.2598 86.6992 17.2598ZM98.7109 14.8574C100.176 14.8574 101.299 15.1764 102.08 15.8145C102.861 16.4525 103.252 17.4225 103.252 18.7246V26H101.172L100.596 24.5156H100.518C100.205 24.9062 99.8861 25.2253 99.5605 25.4727C99.235 25.7201 98.8607 25.9023 98.4375 26.0195C98.0143 26.1367 97.5 26.1953 96.8945 26.1953C96.25 26.1953 95.6706 26.0716 95.1562 25.8242C94.6484 25.5768 94.248 25.1992 93.9551 24.6914C93.6621 24.1771 93.5156 23.526 93.5156 22.7383C93.5156 21.5794 93.9225 20.7266 94.7363 20.1797C95.5501 19.6263 96.7708 19.3203 98.3984 19.2617L100.293 19.2031V18.7246C100.293 18.1517 100.143 17.7318 99.8438 17.4648C99.5443 17.1979 99.1276 17.0645 98.5938 17.0645C98.0664 17.0645 97.5488 17.1393 97.041 17.2891C96.5332 17.4388 96.0254 17.6276 95.5176 17.8555L94.5312 15.8438C95.1107 15.5378 95.7585 15.2969 96.4746 15.1211C97.1973 14.9453 97.9427 14.8574 98.7109 14.8574ZM100.293 20.9414L99.1406 20.9805C98.1771 21.0065 97.5065 21.179 97.1289 21.498C96.7578 21.8171 96.5723 22.237 96.5723 22.7578C96.5723 23.2135 96.7057 23.5391 96.9727 23.7344C97.2396 23.9232 97.5879 24.0176 98.0176 24.0176C98.6556 24.0176 99.1927 23.8288 99.6289 23.4512C100.072 23.0736 100.293 22.5365 100.293 21.8398V20.9414ZM109.521 30.8047C107.998 30.8047 106.833 30.5378 106.025 30.0039C105.225 29.4766 104.824 28.7344 104.824 27.7773C104.824 27.1198 105.029 26.5697 105.439 26.127C105.85 25.6842 106.452 25.3685 107.246 25.1797C106.94 25.0495 106.673 24.8379 106.445 24.5449C106.217 24.2454 106.104 23.9297 106.104 23.5977C106.104 23.181 106.224 22.8359 106.465 22.5625C106.706 22.2826 107.054 22.0091 107.51 21.7422C106.937 21.4948 106.481 21.0977 106.143 20.5508C105.811 20.0039 105.645 19.3594 105.645 18.6172C105.645 17.8229 105.817 17.1491 106.162 16.5957C106.514 16.0358 107.021 15.6094 107.686 15.3164C108.356 15.0234 109.17 14.877 110.127 14.877C110.329 14.877 110.563 14.89 110.83 14.916C111.097 14.9421 111.341 14.9714 111.562 15.0039C111.79 15.0365 111.943 15.0625 112.021 15.082H115.83V16.5957L114.121 17.0352C114.277 17.276 114.395 17.5332 114.473 17.8066C114.551 18.0801 114.59 18.3698 114.59 18.6758C114.59 19.8477 114.18 20.7624 113.359 21.4199C112.546 22.071 111.413 22.3965 109.961 22.3965C109.616 22.377 109.29 22.3509 108.984 22.3184C108.835 22.4355 108.721 22.5592 108.643 22.6895C108.564 22.8197 108.525 22.9564 108.525 23.0996C108.525 23.2428 108.584 23.3633 108.701 23.4609C108.825 23.5521 109.007 23.6237 109.248 23.6758C109.495 23.7214 109.801 23.7441 110.166 23.7441H112.021C113.219 23.7441 114.131 24.0013 114.756 24.5156C115.387 25.0299 115.703 25.7852 115.703 26.7812C115.703 28.0573 115.169 29.0469 114.102 29.75C113.04 30.4531 111.514 30.8047 109.521 30.8047ZM109.648 28.8613C110.358 28.8613 110.967 28.793 111.475 28.6562C111.989 28.526 112.383 28.3372 112.656 28.0898C112.93 27.849 113.066 27.5592 113.066 27.2207C113.066 26.9473 112.985 26.7292 112.822 26.5664C112.666 26.4102 112.425 26.2995 112.1 26.2344C111.781 26.1693 111.37 26.1367 110.869 26.1367H109.326C108.962 26.1367 108.633 26.1953 108.34 26.3125C108.053 26.4297 107.826 26.5924 107.656 26.8008C107.487 27.0156 107.402 27.263 107.402 27.543C107.402 27.9531 107.598 28.2754 107.988 28.5098C108.385 28.7441 108.939 28.8613 109.648 28.8613ZM110.127 20.5801C110.687 20.5801 111.097 20.4076 111.357 20.0625C111.618 19.7174 111.748 19.2487 111.748 18.6562C111.748 17.9987 111.611 17.5072 111.338 17.1816C111.071 16.8496 110.667 16.6836 110.127 16.6836C109.58 16.6836 109.17 16.8496 108.896 17.1816C108.623 17.5072 108.486 17.9987 108.486 18.6562C108.486 19.2487 108.62 19.7174 108.887 20.0625C109.16 20.4076 109.574 20.5801 110.127 20.5801ZM122.139 14.877C123.148 14.877 124.017 15.0723 124.746 15.4629C125.475 15.847 126.038 16.4069 126.436 17.1426C126.833 17.8783 127.031 18.7767 127.031 19.8379V21.2832H119.99C120.023 22.123 120.273 22.7839 120.742 23.2656C121.217 23.7409 121.875 23.9785 122.715 23.9785C123.411 23.9785 124.049 23.9069 124.629 23.7637C125.208 23.6204 125.804 23.4056 126.416 23.1191V25.4238C125.876 25.6908 125.309 25.8861 124.717 26.0098C124.131 26.1335 123.418 26.1953 122.578 26.1953C121.484 26.1953 120.514 25.9935 119.668 25.5898C118.828 25.1862 118.167 24.571 117.686 23.7441C117.21 22.9173 116.973 21.8757 116.973 20.6191C116.973 19.3431 117.188 18.2819 117.617 17.4355C118.053 16.5827 118.659 15.9447 119.434 15.5215C120.208 15.0918 121.11 14.877 122.139 14.877ZM122.158 16.9961C121.579 16.9961 121.097 17.1816 120.713 17.5527C120.335 17.9238 120.117 18.5065 120.059 19.3008H124.238C124.232 18.8581 124.15 18.4642 123.994 18.1191C123.844 17.7741 123.617 17.5007 123.311 17.2988C123.011 17.097 122.627 16.9961 122.158 16.9961Z" fill="#0A2640"/>
<path d="M145 19H159" stroke="#0A2640" stroke-width="2" stroke-linecap="round" stroke-linejoin="round"/>
<path d="M152 12L159 19L152 26" stroke="#0A2640" stroke-width="2" stroke-linecap="round" stroke-linejoin="round"/>
</svg>
