<svg width="28" height="27" viewBox="0 0 28 27" fill="none" xmlns="http://www.w3.org/2000/svg">
<g clip-path="url(#clip0_62_553)" filter="url(#filter0_d_62_553)">
<path d="M2.77502 12.6543C2.77502 12.6543 6.77502 4.6543 13.775 4.6543C20.775 4.6543 24.775 12.6543 24.775 12.6543C24.775 12.6543 20.775 20.6543 13.775 20.6543C6.77502 20.6543 2.77502 12.6543 2.77502 12.6543Z" stroke="#0A2640" stroke-width="2" stroke-linecap="round" stroke-linejoin="round"/>
<path d="M13.775 15.6543C15.4319 15.6543 16.775 14.3112 16.775 12.6543C16.775 10.9974 15.4319 9.6543 13.775 9.6543C12.1182 9.6543 10.775 10.9974 10.775 12.6543C10.775 14.3112 12.1182 15.6543 13.775 15.6543Z" stroke="#0A2640" stroke-width="2" stroke-linecap="round" stroke-linejoin="round"/>
</g>
<defs>
<filter id="filter0_d_62_553" x="-2.22498" y="0.654297" width="32" height="32" filterUnits="userSpaceOnUse" color-interpolation-filters="sRGB">
<feFlood flood-opacity="0" result="BackgroundImageFix"/>
<feColorMatrix in="SourceAlpha" type="matrix" values="0 0 0 0 0 0 0 0 0 0 0 0 0 0 0 0 0 0 127 0" result="hardAlpha"/>
<feOffset dy="4"/>
<feGaussianBlur stdDeviation="2"/>
<feComposite in2="hardAlpha" operator="out"/>
<feColorMatrix type="matrix" values="0 0 0 0 0 0 0 0 0 0 0 0 0 0 0 0 0 0 0.25 0"/>
<feBlend mode="normal" in2="BackgroundImageFix" result="effect1_dropShadow_62_553"/>
<feBlend mode="normal" in="SourceGraphic" in2="effect1_dropShadow_62_553" result="shape"/>
</filter>
<clipPath id="clip0_62_553">
<rect width="24" height="24" fill="white" transform="translate(1.77502 0.654297)"/>
</clipPath>
</defs>
</svg>
